<?xml version="1.0" encoding="UTF-8"?>
<svg version="1.1" xmlns="http://www.w3.org/2000/svg" width="128" height="128">
<path d="M0 0 C5.68604562 4.02381481 9.00691738 8.99731463 11.19140625 15.55078125 C11.37890625 18.48828125 11.37890625 18.48828125 11.19140625 20.55078125 C11.76890625 20.77765625 12.34640625 21.00453125 12.94140625 21.23828125 C15.7811547 22.89480118 17.20640592 24.94546831 19.19140625 27.55078125 C21.44913624 29.95902657 23.70456301 31.95104352 26.31640625 33.98828125 C29.83798596 37.12708056 30.89105257 39.02124012 31.44140625 43.65625 C31.7358989 49.15037847 30.88474884 52.25851824 27.19140625 56.55078125 C23.05446634 60.80263616 19.90425123 61.18806093 14.19140625 61.55078125 C10.19140625 61.55078125 10.19140625 61.55078125 7.19140625 60.98828125 C4.29316239 60.56562069 2.93079704 60.82027704 0.19140625 61.55078125 C-1.14192708 61.21744792 -2.47526042 60.88411458 -3.80859375 60.55078125 C-5.9956276 60.92985407 -5.9956276 60.92985407 -7.80859375 61.55078125 C-7.80859375 60.89078125 -7.80859375 60.23078125 -7.80859375 59.55078125 C-9.41734375 60.04578125 -9.41734375 60.04578125 -11.05859375 60.55078125 C-17.50928584 62.27096581 -24.53145072 61.95879516 -30.55859375 58.92578125 C-35.22098543 56.01977 -37.10166389 51.67157084 -38.80859375 46.55078125 C-38.95866576 42.72394495 -38.78241039 39.08285832 -38.24609375 35.30078125 C-37.54853639 31.62423423 -37.54853639 31.62423423 -38.80859375 28.55078125 C-39.43050036 20.52716648 -39.79945371 13.20526119 -34.80859375 6.55078125 C-25.43303433 -3.9967231 -12.6949551 -7.23388292 0 0 Z " fill="#CBB394" transform="translate(76.80859375,40.44921875)"/>
<path d="M0 0 C5.68604562 4.02381481 9.00691738 8.99731463 11.19140625 15.55078125 C11.37890625 18.48828125 11.37890625 18.48828125 11.19140625 20.55078125 C11.76890625 20.77765625 12.34640625 21.00453125 12.94140625 21.23828125 C15.7811547 22.89480118 17.20640592 24.94546831 19.19140625 27.55078125 C21.44913624 29.95902657 23.70456301 31.95104352 26.31640625 33.98828125 C29.83798596 37.12708056 30.89105257 39.02124012 31.44140625 43.65625 C31.7358989 49.15037847 30.88474884 52.25851824 27.19140625 56.55078125 C23.08159873 60.77475009 19.85764804 61.16662926 14.19140625 61.55078125 C14.19140625 60.23078125 14.19140625 58.91078125 14.19140625 57.55078125 C15.11373047 57.20466797 15.11373047 57.20466797 16.0546875 56.8515625 C21.18479062 54.79749331 21.18479062 54.79749331 25.25390625 51.17578125 C26.39881871 47.97002637 26.67491639 45.93535224 26.19140625 42.55078125 C24.27462956 38.79095005 23.02604678 36.95071317 19.19140625 35.11328125 C16.0771319 33.49126336 15.61932922 32.97932497 14.06640625 30.05078125 C12.30075005 26.75488968 11.37506422 25.34158886 8.19140625 23.55078125 C3.30020148 22.09886573 -2.03136246 21.49228932 -6.87890625 23.33984375 C-10.03479008 25.06963781 -11.79955643 26.53722527 -13.80859375 29.55078125 C-16.41796875 29.88671875 -16.41796875 29.88671875 -19.55859375 29.92578125 C-25.43175927 30.25716034 -27.88789792 31.20622641 -31.80859375 35.55078125 C-33.67105327 39.27570028 -33.2276172 43.48562833 -32.80859375 47.55078125 C-31.26940153 51.32879853 -29.96668416 52.96992086 -26.31640625 54.80078125 C-23.83588792 55.81266408 -21.35622124 56.72426088 -18.80859375 57.55078125 C-18.80859375 58.87078125 -18.80859375 60.19078125 -18.80859375 61.55078125 C-24.58748528 61.145245 -29.29055172 60.39226369 -33.80859375 56.55078125 C-38.31394055 50.55730475 -39.45360108 44.7974827 -38.546875 37.421875 C-38.44761719 36.72191406 -38.34835938 36.02195313 -38.24609375 35.30078125 C-37.54853639 31.62423423 -37.54853639 31.62423423 -38.80859375 28.55078125 C-39.43050036 20.52716648 -39.79945371 13.20526119 -34.80859375 6.55078125 C-25.43303433 -3.9967231 -12.6949551 -7.23388292 0 0 Z " fill="#261B16" transform="translate(76.80859375,40.44921875)"/>
<path d="M0 0 C3.85603662 2.78919983 6.43230589 6.35182772 8.34375 10.6953125 C8.34375 12.0153125 8.34375 13.3353125 8.34375 14.6953125 C7.6425 14.64890625 6.94125 14.6025 6.21875 14.5546875 C-0.36459746 14.30423406 -5.19651158 14.84516677 -10.65625 18.6953125 C-11.30980469 19.47261719 -11.30980469 19.47261719 -11.9765625 20.265625 C-14.46734114 22.3856831 -16.82068165 22.37945033 -20.03125 22.7578125 C-24.24602838 23.26649265 -27.77693467 23.94453536 -31.65625 25.6953125 C-33.54965495 20.01509766 -33.57756907 13.95429581 -31.09375 8.4453125 C-28.13922242 3.28793927 -24.06920267 -0.17522029 -18.71875 -2.6796875 C-11.38642561 -4.17608023 -6.57479518 -3.5512011 0 0 Z " fill="#F3B22C" transform="translate(74.65625,44.3046875)"/>
<path d="M0 0 C-1.03004087 3.2045716 -2.60838543 4.63327691 -5.375 6.375 C-9 8 -9 8 -11.4375 7.25 C-11.953125 6.8375 -12.46875 6.425 -13 6 C-11.93363297 2.90753562 -10.99355341 1.99584553 -8.1875 0.1875 C-4.81023996 -1.07069492 -3.36888105 -1.0899321 0 0 Z " fill="#211613" transform="translate(38,77)"/>
<path d="M0 0 C4.10958767 1.45044271 7.43258745 3.51110752 11 6 C10.67 6.99 10.34 7.98 10 9 C5.00088076 8.52389341 2.02167317 6.96837781 -2 4 C-1.34 2.68 -0.68 1.36 0 0 Z " fill="#221713" transform="translate(27,39)"/>
<path d="M0 0 C1.65 0.33 3.3 0.66 5 1 C3.54955729 5.10958767 1.48889248 8.43258745 -1 12 C-2.32 11.34 -3.64 10.68 -5 10 C-3.66511872 6.40608886 -2.03977277 3.24509304 0 0 Z " fill="#231513" transform="translate(81,25)"/>
<path d="M0 0 C0 1.32 0 2.64 0 4 C-6.27692308 8.06153846 -6.27692308 8.06153846 -9.9375 7.75 C-10.618125 7.5025 -11.29875 7.255 -12 7 C-12 6.01 -12 5.02 -12 4 C-10.56988027 3.13353333 -9.13059381 2.28218171 -7.6875 1.4375 C-6.48673828 0.72400391 -6.48673828 0.72400391 -5.26171875 -0.00390625 C-3 -1 -3 -1 0 0 Z " fill="#211714" transform="translate(100,40)"/>
<path d="M0 0 C1.65 0 3.3 0 5 0 C9.06153846 6.27692308 9.06153846 6.27692308 8.75 9.9375 C8.5025 10.618125 8.255 11.29875 8 12 C4.74905801 10.95505436 3.43126714 9.40864509 1.75 6.5625 C0 3 0 3 0 0 Z " fill="#211714" transform="translate(40,25)"/>
<path d="M0 0 C1.32 0 2.64 0 4 0 C4 4.29 4 8.58 4 13 C2.35 12.67 0.7 12.34 -1 12 C-1.02698189 10.37509046 -1.04638757 8.75005367 -1.0625 7.125 C-1.07410156 6.22007813 -1.08570313 5.31515625 -1.09765625 4.3828125 C-1 2 -1 2 0 0 Z " fill="#211613" transform="translate(61,19)"/>
<path d="M0 0 C3.96 0 7.92 0 12 0 C12 1.32 12 2.64 12 4 C8.04 4 4.08 4 0 4 C0 2.68 0 1.36 0 0 Z " fill="#211614" transform="translate(93,60)"/>
<path d="M0 0 C4.29 0 8.58 0 13 0 C13 1.32 13 2.64 13 4 C8.71 4 4.42 4 0 4 C0 2.68 0 1.36 0 0 Z " fill="#221714" transform="translate(20,60)"/>
<path d="M0 0 C1.98 0.495 1.98 0.495 4 1 C3.67 2.32 3.34 3.64 3 5 C1.68 4.67 0.36 4.34 -1 4 C-0.67 2.68 -0.34 1.36 0 0 Z " fill="#221512" transform="translate(66,104)"/>
<path d="M0 0 C0.99 0 1.98 0 3 0 C3.33 0.99 3.66 1.98 4 3 C3.67 3.66 3.34 4.32 3 5 C1.68 4.67 0.36 4.34 -1 4 C-0.67 2.68 -0.34 1.36 0 0 Z " fill="#221816" transform="translate(95,104)"/>
<path d="M0 0 C0.99 0 1.98 0 3 0 C3 1.65 3 3.3 3 5 C1.68 5 0.36 5 -1 5 C-0.67 3.35 -0.34 1.7 0 0 Z " fill="#1E1512" transform="translate(88,104)"/>
<path d="M0 0 C1.32 0.33 2.64 0.66 4 1 C4 2.32 4 3.64 4 5 C2.68 5 1.36 5 0 5 C0 3.35 0 1.7 0 0 Z " fill="#1E1513" transform="translate(80,104)"/>
<path d="M0 0 C1.98 0.495 1.98 0.495 4 1 C3.67 2.32 3.34 3.64 3 5 C2.01 5 1.02 5 0 5 C-0.33 4.01 -0.66 3.02 -1 2 C-0.67 1.34 -0.34 0.68 0 0 Z " fill="#211712" transform="translate(73,104)"/>
</svg>
